PathFileType	4	(X/Y/Z)	/Users/niels/Desktop/University/Third Semester/Perception and Action/Exam/Gymnastics Motion Tracking/Code for Gym Tracking/Analyzed Data/Backflip/id1_3_pettlep_Sports2D/id1_3_pettlep_Sports2D_px_person00.trc
DataRate	CameraRate	NumFrames	NumMarkers	Units	OrigDataRate	OrigDataStartFrame	OrigNumFrames
59.90876837303599	59.90876837303599	11	22	m	59.90876837303599	0	198
Frame#	Time	Hip			RHip			RKnee			RAnkle			RBigToe			RSmallToe			RHeel			LHip			LKnee			LAnkle			LBigToe			LSmallToe			LHeel			Neck			Head			Nose			RShoulder			RElbow			RWrist			LShoulder			LElbow			LWrist		
		X1	Y1	Z1	X2	Y2	Z2	X3	Y3	Z3	X4	Y4	Z4	X5	Y5	Z5	X6	Y6	Z6	X7	Y7	Z7	X8	Y8	Z8	X9	Y9	Z9	X10	Y10	Z10	X11	Y11	Z11	X12	Y12	Z12	X13	Y13	Z13	X14	Y14	Z14	X15	Y15	Z15	X16	Y16	Z16	X17	Y17	Z17	X18	Y18	Z18	X19	Y19	Z19	X20	Y20	Z20	X21	Y21	Z21	X22	Y22	Z22
0	0.0	1.0781452343814073	-0.5307428908086603	0.0	1.0733978685902903	-0.529160081618597	0.0	1.070217956195943	-0.6259202792998829	0.0	1.0496113845306032	-0.714687535000735	0.0	1.0813585264311578	-0.7194912298342688	0.0	1.0749910539271015	-0.724228596866211	0.0	1.044870417120363	-0.7210329074248778	0.0	1.078103991937444	-0.5291494241691763	0.0	1.0733759907868432	-0.6258804269976174	0.0	1.0527477999247972	-0.7099404084143215	0.0	1.0860746024724257	-0.7163106417006156	0.0	1.0796740657165522	-0.7147016349793242	0.0	1.0401203311442064	-0.7178597073270605	0.0	1.0765247742388049	-0.3960335955223437	0.0	1.0845037365590735	-0.33883085981394123	0.0	1.1034623795476206	-0.3658718669731429	0.0	1.0733807588106834	-0.40552796141277286	0.0	1.1083230186376896	-0.34042558717587273	0.0	1.116174063294496	-0.28329113676218687	0.0	1.0764321289782026	-0.4087176956096064	0.0	1.1003064587631497	-0.47092099626442063	0.0	1.1034283417367412	-0.524749552310972	0.0
1	0.016692047377326564	1.0783108077981267	-0.5308032245019048	0.0	1.0736634097897353	-0.5293210510996045	0.0	1.0701172264381411	-0.6259417191950389	0.0	1.0493187256311913	-0.7143814075341933	0.0	1.0811832758945636	-0.7193673620863036	0.0	1.0748173692029772	-0.7238141481041985	0.0	1.0446463713147502	-0.7210885631118779	0.0	1.0781664874003642	-0.5293401742677959	0.0	1.0733947442666192	-0.6258338858881024	0.0	1.0525894060691492	-0.7098828715448482	0.0	1.0858328233327856	-0.7162362626121369	0.0	1.07924255429712	-0.7147155346418828	0.0	1.0400338106137306	-0.7176467345850263	0.0	1.076877884520989	-0.3956139706206025	0.0	1.0843413314495995	-0.3391345875009291	0.0	1.1032447490587212	-0.36606185876773284	0.0	1.0736696820790992	-0.40530828238309174	0.0	1.1082401249626272	-0.34019610722411503	0.0	1.1164146800780281	-0.2826915528248283	0.0	1.0767323537891704	-0.40844581449130773	0.0	1.1004976384988665	-0.4713143334717818	0.0	1.1040234706738676	-0.5250189970085403	0.0
2	0.03338409475465313	1.0784784591970478	-0.5308475532105904	0.0	1.0739201765464803	-0.5294640313372834	0.0	1.070014726639936	-0.6259538594660204	0.0	1.049032025057673	-0.7140815096467671	0.0	1.0810036909393883	-0.7192274037245998	0.0	1.0746391020536188	-0.7234083167269044	0.0	1.044420032789412	-0.721130289568389	0.0	1.078229795280559	-0.5295123976038137	0.0	1.0734103122359275	-0.6257846449488358	0.0	1.052428028308825	-0.7098171459683031	0.0	1.0855770319704179	-0.716151769594669	0.0	1.0788224464972005	-0.7147200702171687	0.0	1.039933841338654	-0.7174375938388493	0.0	1.0772205571136204	-0.39518016268332545	0.0	1.0841726453555178	-0.33944379661796653	0.0	1.103043997480011	-0.36623378906270687	0.0	1.0739610708637757	-0.405084786076388	0.0	1.108154135225947	-0.33997048991118306	0.0	1.1166598246975659	-0.2821114277098655	0.0	1.0770342290606274	-0.4081728708696754	0.0	1.1006770725442834	-0.47144476537503704	0.0	1.1046047355329498	-0.5253104927004638	0.0
3	0.050076142131979695	1.0786469127346274	-0.5308623773452231	0.0	1.074155597330089	-0.5295768996474414	0.0	1.0699033615594282	-0.6259546215602468	0.0	1.048758199431276	-0.7137916034988366	0.0	1.0808207229714164	-0.7190604932523212	0.0	1.0744571696806449	-0.7230149990361177	0.0	1.044196681075397	-0.7211488826138253	0.0	1.0782903110623387	-0.529653741256237	0.0	1.0734189122110314	-0.6257303732106122	0.0	1.0522597115880146	-0.7097392407256004	0.0	1.0853015928812675	-0.7160544496989704	0.0	1.0784215230350669	-0.714708718343361	0.0	1.0398145834704127	-0.7172353415711106	0.0	1.077543322983045	-0.39472698653886623	0.0	1.0839892851130981	-0.3397632727136003	0.0	1.1028718332152938	-0.3663783679168439	0.0	1.07425139939698	-0.4048574432150614	0.0	1.1080697831565727	-0.339753693217043	0.0	1.1169105373536934	-0.2815698607385726	0.0	1.0773291984447206	-0.4079027153517121	0.0	1.1008328980400408	-0.4711867338353149	0.0	1.1051561496464934	-0.5255965598569065	0.0
4	0.06676818950930626	1.0788116774693877	-0.5308416014718156	0.0	1.0743569169195917	-0.5296588269226203	0.0	1.0697742056140296	-0.6259460361839316	0.0	1.0485048318288395	-0.7135156399052854	0.0	1.0806385504322233	-0.7188591836213927	0.0	1.0742759091258671	-0.7226322925359191	0.0	1.043984783071287	-0.7211393347538699	0.0	1.0783436993315805	-0.5297626699671559	0.0	1.0734166517344699	-0.6256744958401202	0.0	1.0520839622658247	-0.7096513790400011	0.0	1.085009960412076	-0.715942989750963	0.0	1.078051668410307	-0.7146758193929872	0.0	1.0396776697635715	-0.7170433871054838	0.0	1.0778411532184504	-0.39425206006768443	0.0	1.0837782951841444	-0.34010359172281707	0.0	1.102739778148811	-0.3664901018106408	0.0	1.0745364520078426	-0.4046251152432443	0.0	1.1079931899606115	-0.3395541885349643	0.0	1.1171645146745524	-0.2810879172717633	0.0	1.0776149293380777	-0.40763693819668617	0.0	1.1009610663000093	-0.47041024912657275	0.0	1.105670935911504	-0.5258302759870487	0.0
5	0.08346023688663282	1.0789644204007898	-0.530787442487387	0.0	1.0745148872283694	-0.529718230923109	0.0	1.0696206943100794	-0.6259327069313606	0.0	1.0482771673245694	-0.7132595466329413	0.0	1.080465409160781	-0.7186210194560406	0.0	1.0741039351676238	-0.7222562719845277	0.0	1.043794477349356	-0.7210985779652135	0.0	1.0783843536427702	-0.5298461405018575	0.0	1.0733995299172687	-0.6256242137252763	0.0	1.0519046299971335	-0.7095597469173607	0.0	1.0847134451875728	-0.7158163879564455	0.0	1.0777259394366756	-0.7146176148496847	0.0	1.0395307015426098	-0.7168624641049975	0.0	1.0781142599469604	-0.3937572517978164	0.0	1.083529952078057	-0.34047221486415535	0.0	1.1026597278704922	-0.3665639776740447	0.0	1.074814426994556	-0.4043846979369151	0.0	1.1079315429063292	-0.339380391841446	0.0	1.117417371704528	-0.28068562669716585	0.0	1.0778953931429514	-0.40737341494217305	0.0	1.1010666669594524	-0.4689835206582661	0.0	1.1061518608212326	-0.5259585059564075	0.0
6	0.10015228426395939	1.0790953196907047	-0.5307094072013908	0.0	1.0746257744125616	-0.5297677594719011	0.0	1.0694409588391547	-0.6259214003005644	0.0	1.0480767571830878	-0.7130312805098172	0.0	1.0803104548707252	-0.7183478755242408	0.0	1.0739519890437128	-0.7218850753414237	0.0	1.0436338298536663	-0.7210258642149692	0.0	1.0784068732405983	-0.5299143242753015	0.0	1.073364488789732	-0.6255876007305097	0.0	1.0517287623221314	-0.709471702113218	0.0	1.084429131127009	-0.7156733860517337	0.0	1.0774553016433381	-0.714532882723851	0.0	1.0393827823312676	-0.7166898644117505	0.0	1.0783661423936346	-0.39325152225278953	0.0	1.0832428570615802	-0.34086933372338174	0.0	1.1026402449966455	-0.36659848499596587	0.0	1.0750860950184407	-0.4041325386406016	0.0	1.1078898295539448	-0.3392398945963608	0.0	1.117665960172469	-0.2803811551542813	0.0	1.078177045024992	-0.4071090250166104	0.0	1.1011606241021208	-0.46677828020693224	0.0	1.1066080257466047	-0.5259324143406838	0.0
7	0.11684433164128595	1.0791974968495623	-0.5306217445425753	0.0	1.074690800350952	-0.5298196188624019	0.0	1.0692393681646382	-0.6259180418203685	0.0	1.0479027523832745	-0.7128372158329525	0.0	1.0801775836784029	-0.7180431742170156	0.0	1.0738287037996073	-0.7215194708015887	0.0	1.0435067807347782	-0.7209239307442462	0.0	1.0784115788296338	-0.5299766934538663	0.0	1.0733125500729794	-0.6255689938936562	0.0	1.0515654210449816	-0.7093915178519907	0.0	1.0841758525382437	-0.715512528851023	0.0	1.077247877116723	-0.7144213389448478	0.0	1.0392420291307896	-0.716521023714122	0.0	1.078600865257289	-0.392752843094977	0.0	1.0829283660091407	-0.3412862281116024	0.0	1.1026833679740953	-0.36659982784769546	0.0	1.0753500841397772	-0.4038688000454914	0.0	1.1078664976398809	-0.3391402136821972	0.0	1.1179097825288289	-0.280191844248419	0.0	1.0784669925326285	-0.4068422789290697	0.0	1.1012556321173668	-0.4636805959158212	0.0	1.1070510125909716	-0.5257102850567571	0.0
8	0.1335363790186125	1.0792696770726042	-0.5305390011733911	0.0	1.074715026534316	-0.5298808550717482	0.0	1.0690272923244426	-0.6259227555216632	0.0	1.047753856437783	-0.7126784447583323	0.0	1.0800640047233077	-0.7177116008871357	0.0	1.0737381269778399	-0.7211615952749671	0.0	1.0434136915102332	-0.7207996814848922	0.0	1.078408205929715	-0.5300400830468941	0.0	1.0732511083078298	-0.6255662577401171	0.0	1.0514253787847712	-0.7093182478234585	0.0	1.083969056261812	-0.7153325732480363	0.0	1.0771096129318352	-0.7142834660108384	0.0	1.0391149828283675	-0.7163522071996701	0.0	1.0788215158587082	-0.3922819252388305	0.0	1.0826104260189515	-0.3417058511115142	0.0	1.102784812940896	-0.36657818848969687	0.0	1.0755992017204887	-0.40359860388858987	0.0	1.1078539054536232	-0.3390867587449235	0.0	1.1181495469561882	-0.2801297582860284	0.0	1.0787740884946828	-0.40657263231826885	0.0	1.1013632107582323	-0.45961400058897794	0.0	1.1074913018857142	-0.5252538228675683	0.0
9	0.15022842639593909	1.0793156396690806	-0.5304696928943159	0.0	1.0747061506284676	-0.5299496041971957	0.0	1.0688205751115856	-0.6259288320390358	0.0	1.04762947607391	-0.7125508069167023	0.0	1.0799649766875674	-0.7173621920128103	0.0	1.073680386002447	-0.7208157159873555	0.0	1.0433529945588713	-0.7206632939131881	0.0	1.07841135710539	-0.5301068063818952	0.0	1.0731919105661298	-0.62557188249732	0.0	1.0513191647388842	-0.7092475796544659	0.0	1.0838168229708403	-0.7151361353772908	0.0	1.0770428334900592	-0.7141246454587382	0.0	1.0390054094843717	-0.7161832715188207	0.0	1.0790312615517756	-0.3918518273219027	0.0	1.082317253027662	-0.34210605010294626	0.0	1.10293701064343	-0.36653925951484023	0.0	1.0758232094217648	-0.4033282531759503	0.0	1.1078440101525597	-0.3390792719947191	0.0	1.1183852700253454	-0.2801939595967165	0.0	1.0791064699576494	-0.406298734339234	0.0	1.1014902540085754	-0.4545761357682272	0.0	1.107933349857655	-0.5245224313260999	0.0
10	0.16692047377326563	1.079341428785859	-0.5304131604825717	0.0	1.0746721853165921	-0.5300164667617087	0.0	1.068633637118489	-0.6259264066483755	0.0	1.0475292258432587	-0.7124470139936008	0.0	1.0798778050852718	-0.7170091491101003	0.0	1.0736544734634492	-0.7204883379957794	0.0	1.0433231047994096	-0.7205249981842289	0.0	1.0784325246855264	-0.5301740191018632	0.0	1.0731466250441342	-0.6255747791372428	0.0	1.0512534745347513	-0.7091741031275549	0.0	1.0837198150803118	-0.7149329661754068	0.0	1.0770435922744368	-0.7139560380527609	0.0	1.0389145728582523	-0.7160169138905684	0.0	1.0792349859311872	-0.39146604375845256	0.0	1.082072464910282	-0.3424628656144432	0.0	1.1031319186397293	-0.36648288505897975	0.0	1.0760141777418653	-0.4030632970610996	0.0	1.1078342594920985	-0.3391108825940321	0.0	1.1186156747994531	-0.2803688198840238	0.0	1.0794654428160204	-0.40601946094070196	0.0	1.1016368050288559	-0.4486821969868332	0.0	1.1083730107961098	-0.5234651885284094	0.0
